<svg xmlns="http://www.w3.org/2000/svg" version="1.1" xmlns:xlink="http://www.w3.org/1999/xlink"
xmlns:svgjs="http://svgjs.dev/svgjs" width="100%" height="100%" viewBox="0 0 95 95" preserveAspectRatio="xMidYMid meet">
	<g transform="matrix(1,0,0,1,1,1)">
		<svg xmlns="http://www.w3.org/2000/svg" xmlns:xlink="http://www.w3.org/1999/xlink" version="1.1"
			x="0" y="0" viewBox="6 6.5 87 87.001" enable-background="new 0 0 100 100" xml:space="preserve"
			width="93" height="93" class="icon-icon-0" data-fill-palette-color="accent" id="icon-0">
			<g fill="#ffffff" data-fill-palette-color="accent">
				<path
					d="M86 43.75C82.475 43.75 79.565 46 79.079 50H60C60 47 59.38 45.791 58.319 44.204L74.139 28.259C74.715 28.49 75.34 28.563 75.999 28.563 78.761 28.563 80.999 26.293 80.999 23.532S78.761 18.516 75.999 18.516 70.999 20.746 70.999 23.508C70.999 24.797 71.5 25.956 72.301 26.843L56.883 42.26A9.96 9.96 0 0 0 51 39.551V20.42C54.391 19.934 57 17.026 57 13.5A7 7 0 1 0 43 13.5C43 17.026 45.609 19.934 49 20.42V39.55A9.95 9.95 0 0 0 43.408 41.993L28.489 27.075A4.98 4.98 0 0 0 30 23.5C30 20.738 27.762 18.5 25 18.5S20 20.738 20 23.5A5 5 0 0 0 25 28.5C25.619 28.5 26.206 28.373 26.753 28.167L42.045 43.709C40.767 45.388 40 47 40 50H19.92C19.434 46 16.525 43.75 13 43.75 9.134 43.75 6 46.759 6 50.625S9.134 57.813 13 57.813C16.526 57.813 19.434 55 19.92 52H40.2C40.58 53 41.49 55.3 42.757 56.633L28.338 70.927C27.452 70.126 26.289 69.563 25 69.563 22.238 69.563 20 71.77 20 74.532S22.238 79.516 25 79.516 30 77.27 30 74.508C30 73.849 29.865 73.219 29.634 72.644L44.454 57.822A9.9 9.9 0 0 0 49 59.45V79.58C45.609 80.066 43 82.976 43 86.501 43 90.368 46.134 93.501 50 93.501S57 90.368 57 86.501C57 82.976 54.391 80.066 51 79.58V59.45A9.94 9.94 0 0 0 56.042 57.456L71.333 72.747A5 5 0 0 0 71 74.5C71 77.262 73.238 79.5 76 79.5S81 77.262 81 74.5 78.762 69.5 76 69.5A4.98 4.98 0 0 0 72.426 71.011L57.507 56.342C58.635 55.059 59.446 53 59.799 52H79.079C79.565 55 82.475 57.75 86 57.75A7 7 0 1 0 86 43.75"
					fill="#ffffff" data-fill-palette-color="accent"></path>
			</g>
		</svg>
	</g>
</svg>